<svg class="railroad-diagram" height="222" viewBox="0 0 657 222" width="657">
<g transform="translate(.5 .5)">
<path d="M 20 31 v 20 m 10 -20 v 20 m -10 -10 h 20.5">
</path><g>
<path d="M40 41h0">
</path><path d="M616 41h0">
</path><path d="M40 41h20">
</path><g>
<path d="M60 41h0">
</path><path d="M596 41h0">
</path><path d="M60 41h10">
</path><g class="terminal">
<path d="M70 41h0">
</path><path d="M114 41h0">
</path><rect height="22" rx="10" ry="10" width="44" x="70" y="30">
</rect><text x="92" y="45">
def</text></g><path d="M114 41h10">
</path><path d="M124 41h10">
</path><g class="non-terminal">
<path d="M134 41h0">
</path><path d="M210 41h0">
</path><rect height="22" width="76" x="134" y="30">
</rect><text x="172" y="45">
pattern</text></g><path d="M210 41h10">
</path><g>
<path d="M220 41h0">
</path><path d="M412 41h0">
</path><path d="M220 41a10 10 0 0 0 10 -10v0a10 10 0 0 1 10 -10">
</path><g>
<path d="M240 21h152">
</path></g><path d="M392 21a10 10 0 0 1 10 10v0a10 10 0 0 0 10 10">
</path><path d="M220 41h20">
</path><g>
<path d="M240 41h0">
</path><path d="M392 41h0">
</path><path d="M240 41h10">
</path><g class="terminal">
<path d="M250 41h0">
</path><path d="M302 41h0">
</path><rect height="22" rx="10" ry="10" width="52" x="250" y="30">
</rect><text x="276" y="45">
exit</text></g><path d="M302 41h10">
</path><path d="M312 41h10">
</path><g class="non-terminal">
<path d="M322 41h0">
</path><path d="M382 41h0">
</path><rect height="22" width="60" x="322" y="30">
</rect><text x="352" y="45">
order</text></g><path d="M382 41h10">
</path></g><path d="M392 41h20">
</path></g><g>
<path d="M412 41h0">
</path><path d="M596 41h0">
</path><path d="M412 41a10 10 0 0 0 10 -10v0a10 10 0 0 1 10 -10">
</path><g>
<path d="M432 21h144">
</path></g><path d="M576 21a10 10 0 0 1 10 10v0a10 10 0 0 0 10 10">
</path><path d="M412 41h20">
</path><g>
<path d="M432 41h0">
</path><path d="M576 41h0">
</path><path d="M432 41h10">
</path><g class="terminal">
<path d="M442 41h0">
</path><path d="M478 41h0">
</path><rect height="22" rx="10" ry="10" width="36" x="442" y="30">
</rect><text x="460" y="45">
:=</text></g><path d="M478 41h10">
</path><path d="M488 41h10">
</path><g class="non-terminal">
<path d="M498 41h0">
</path><path d="M566 41h0">
</path><rect height="22" width="68" x="498" y="30">
</rect><text x="532" y="45">
assign</text></g><path d="M566 41h10">
</path></g><path d="M576 41h20">
</path></g></g><path d="M596 41h20">
</path><path d="M40 41a10 10 0 0 1 10 10v10a10 10 0 0 0 10 10">
</path><g>
<path d="M60 71h102">
</path><path d="M494 71h102">
</path><g>
<path d="M162 71h0">
</path><path d="M254 71h0">
</path><path d="M162 71h20">
</path><g class="terminal">
<path d="M182 71h4">
</path><path d="M230 71h4">
</path><rect height="22" rx="10" ry="10" width="44" x="186" y="60">
</rect><text x="208" y="75">
var</text></g><path d="M234 71h20">
</path><path d="M162 71a10 10 0 0 1 10 10v10a10 10 0 0 0 10 10">
</path><g class="terminal">
<path d="M182 101h0">
</path><path d="M234 101h0">
</path><rect height="22" rx="10" ry="10" width="52" x="182" y="90">
</rect><text x="208" y="105">
bind</text></g><path d="M234 101a10 10 0 0 0 10 -10v-10a10 10 0 0 1 10 -10">
</path></g><path d="M254 71h10">
</path><g class="non-terminal">
<path d="M264 71h0">
</path><path d="M340 71h0">
</path><rect height="22" width="76" x="264" y="60">
</rect><text x="302" y="75">
pattern</text></g><path d="M340 71h10">
</path><path d="M350 71h10">
</path><g class="terminal">
<path d="M360 71h0">
</path><path d="M396 71h0">
</path><rect height="22" rx="10" ry="10" width="36" x="360" y="60">
</rect><text x="378" y="75">
:=</text></g><path d="M396 71h10">
</path><path d="M406 71h10">
</path><g class="non-terminal">
<path d="M416 71h0">
</path><path d="M484 71h0">
</path><rect height="22" width="68" x="416" y="60">
</rect><text x="450" y="75">
assign</text></g><path d="M484 71h10">
</path></g><path d="M596 71a10 10 0 0 0 10 -10v-10a10 10 0 0 1 10 -10">
</path><path d="M40 41a10 10 0 0 1 10 10v70a10 10 0 0 0 10 10">
</path><g>
<path d="M60 131h160">
</path><path d="M436 131h160">
</path><path d="M220 131h10">
</path><g class="non-terminal">
<path d="M230 131h0">
</path><path d="M282 131h0">
</path><rect height="22" width="52" x="230" y="120">
</rect><text x="256" y="135">
lval</text></g><path d="M282 131h10">
</path><path d="M292 131h10">
</path><g class="terminal">
<path d="M302 131h0">
</path><path d="M338 131h0">
</path><rect height="22" rx="10" ry="10" width="36" x="302" y="120">
</rect><text x="320" y="135">
:=</text></g><path d="M338 131h10">
</path><path d="M348 131h10">
</path><g class="non-terminal">
<path d="M358 131h0">
</path><path d="M426 131h0">
</path><rect height="22" width="68" x="358" y="120">
</rect><text x="392" y="135">
assign</text></g><path d="M426 131h10">
</path></g><path d="M596 131a10 10 0 0 0 10 -10v-70a10 10 0 0 1 10 -10">
</path><path d="M40 41a10 10 0 0 1 10 10v100a10 10 0 0 0 10 10">
</path><g class="terminal">
<path d="M60 161h218">
</path><path d="M378 161h218">
</path><rect height="22" rx="10" ry="10" width="100" x="278" y="150">
</rect><text x="328" y="165">
@op=...XXX</text></g><path d="M596 161a10 10 0 0 0 10 -10v-100a10 10 0 0 1 10 -10">
</path><path d="M40 41a10 10 0 0 1 10 10v130a10 10 0 0 0 10 10">
</path><g class="terminal">
<path d="M60 191h198">
</path><path d="M398 191h198">
</path><rect height="22" rx="10" ry="10" width="140" x="258" y="180">
</rect><text x="328" y="195">
VERB_ASSIGN XXX</text></g><path d="M596 191a10 10 0 0 0 10 -10v-130a10 10 0 0 1 10 -10">
</path></g><path d="M 616 41 h 20 m -10 -10 v 20 m 10 -20 v 20">
</path></g></svg>