<svg class="railroad-diagram" height="452" viewBox="0 0 213 452" width="213">
<g transform="translate(.5 .5)">
<path d="M 20 21 v 20 m 10 -20 v 20 m -10 -10 h 20.5">
</path><g>
<path d="M40 31h0">
</path><path d="M172 31h0">
</path><path d="M40 31h20">
</path><g class="non-terminal">
<path d="M60 31h28">
</path><path d="M124 31h28">
</path><rect height="22" width="36" x="88" y="20">
</rect><text x="106" y="35">
if</text></g><path d="M152 31h20">
</path><path d="M40 31a10 10 0 0 1 10 10v10a10 10 0 0 0 10 10">
</path><g class="non-terminal">
<path d="M60 61h12">
</path><path d="M140 61h12">
</path><rect height="22" width="68" x="72" y="50">
</rect><text x="106" y="65">
escape</text></g><path d="M152 61a10 10 0 0 0 10 -10v-10a10 10 0 0 1 10 -10">
</path><path d="M40 31a10 10 0 0 1 10 10v40a10 10 0 0 0 10 10">
</path><g class="non-terminal">
<path d="M60 91h24">
</path><path d="M128 91h24">
</path><rect height="22" width="44" x="84" y="80">
</rect><text x="106" y="95">
for</text></g><path d="M152 91a10 10 0 0 0 10 -10v-40a10 10 0 0 1 10 -10">
</path><path d="M40 31a10 10 0 0 1 10 10v70a10 10 0 0 0 10 10">
</path><g class="non-terminal">
<path d="M60 121h28">
</path><path d="M124 121h28">
</path><rect height="22" width="36" x="88" y="110">
</rect><text x="106" y="125">
fn</text></g><path d="M152 121a10 10 0 0 0 10 -10v-70a10 10 0 0 1 10 -10">
</path><path d="M40 31a10 10 0 0 1 10 10v100a10 10 0 0 0 10 10">
</path><g class="non-terminal">
<path d="M60 151h12">
</path><path d="M140 151h12">
</path><rect height="22" width="68" x="72" y="140">
</rect><text x="106" y="155">
switch</text></g><path d="M152 151a10 10 0 0 0 10 -10v-100a10 10 0 0 1 10 -10">
</path><path d="M40 31a10 10 0 0 1 10 10v130a10 10 0 0 0 10 10">
</path><g class="non-terminal">
<path d="M60 181h24">
</path><path d="M128 181h24">
</path><rect height="22" width="44" x="84" y="170">
</rect><text x="106" y="185">
try</text></g><path d="M152 181a10 10 0 0 0 10 -10v-130a10 10 0 0 1 10 -10">
</path><path d="M40 31a10 10 0 0 1 10 10v160a10 10 0 0 0 10 10">
</path><g class="non-terminal">
<path d="M60 211h16">
</path><path d="M136 211h16">
</path><rect height="22" width="60" x="76" y="200">
</rect><text x="106" y="215">
while</text></g><path d="M152 211a10 10 0 0 0 10 -10v-160a10 10 0 0 1 10 -10">
</path><path d="M40 31a10 10 0 0 1 10 10v190a10 10 0 0 0 10 10">
</path><g class="non-terminal">
<path d="M60 241h20">
</path><path d="M132 241h20">
</path><rect height="22" width="52" x="80" y="230">
</rect><text x="106" y="245">
when</text></g><path d="M152 241a10 10 0 0 0 10 -10v-190a10 10 0 0 1 10 -10">
</path><path d="M40 31a10 10 0 0 1 10 10v220a10 10 0 0 0 10 10">
</path><g class="non-terminal">
<path d="M60 271h20">
</path><path d="M132 271h20">
</path><rect height="22" width="52" x="80" y="260">
</rect><text x="106" y="275">
bind</text></g><path d="M152 271a10 10 0 0 0 10 -10v-220a10 10 0 0 1 10 -10">
</path><path d="M40 31a10 10 0 0 1 10 10v250a10 10 0 0 0 10 10">
</path><g class="non-terminal">
<path d="M60 301h12">
</path><path d="M140 301h12">
</path><rect height="22" width="68" x="72" y="290">
</rect><text x="106" y="305">
object</text></g><path d="M152 301a10 10 0 0 0 10 -10v-250a10 10 0 0 1 10 -10">
</path><path d="M40 31a10 10 0 0 1 10 10v280a10 10 0 0 0 10 10">
</path><g class="non-terminal">
<path d="M60 331h24">
</path><path d="M128 331h24">
</path><rect height="22" width="44" x="84" y="320">
</rect><text x="106" y="335">
def</text></g><path d="M152 331a10 10 0 0 0 10 -10v-280a10 10 0 0 1 10 -10">
</path><path d="M40 31a10 10 0 0 1 10 10v310a10 10 0 0 0 10 10">
</path><g class="non-terminal">
<path d="M60 361h0">
</path><path d="M152 361h0">
</path><rect height="22" width="92" x="60" y="350">
</rect><text x="106" y="365">
interface</text></g><path d="M152 361a10 10 0 0 0 10 -10v-310a10 10 0 0 1 10 -10">
</path><path d="M40 31a10 10 0 0 1 10 10v340a10 10 0 0 0 10 10">
</path><g class="non-terminal">
<path d="M60 391h20">
</path><path d="M132 391h20">
</path><rect height="22" width="52" x="80" y="380">
</rect><text x="106" y="395">
meta</text></g><path d="M152 391a10 10 0 0 0 10 -10v-340a10 10 0 0 1 10 -10">
</path><path d="M40 31a10 10 0 0 1 10 10v370a10 10 0 0 0 10 10">
</path><g class="non-terminal">
<path d="M60 421h20">
</path><path d="M132 421h20">
</path><rect height="22" width="52" x="80" y="410">
</rect><text x="106" y="425">
pass</text></g><path d="M152 421a10 10 0 0 0 10 -10v-370a10 10 0 0 1 10 -10">
</path></g><path d="M 172 31 h 20 m -10 -10 v 20 m 10 -20 v 20">
</path></g></svg>