<svg class="railroad-diagram" height="132" viewBox="0 0 369 132" width="369">
<g transform="translate(.5 .5)">
<path d="M 20 31 v 20 m 10 -20 v 20 m -10 -10 h 20.5">
</path><g>
<path d="M40 41h0">
</path><path d="M328 41h0">
</path><path d="M40 41h10">
</path><g class="terminal">
<path d="M50 41h0">
</path><path d="M78 41h0">
</path><rect height="22" rx="10" ry="10" width="28" x="50" y="30">
</rect><text x="64" y="45">
{</text></g><path d="M78 41h10">
</path><g>
<path d="M88 41h0">
</path><path d="M280 41h0">
</path><path d="M88 41a10 10 0 0 0 10 -10v0a10 10 0 0 1 10 -10">
</path><g>
<path d="M108 21h152">
</path></g><path d="M260 21a10 10 0 0 1 10 10v0a10 10 0 0 0 10 10">
</path><path d="M88 41h20">
</path><g>
<path d="M108 41h0">
</path><path d="M260 41h0">
</path><path d="M108 41h10">
</path><g>
<path d="M118 41h0">
</path><path d="M250 41h0">
</path><path d="M118 41h20">
</path><g class="non-terminal">
<path d="M138 41h0">
</path><path d="M230 41h0">
</path><rect height="22" width="92" x="138" y="30">
</rect><text x="184" y="45">
blockExpr</text></g><path d="M230 41h20">
</path><path d="M118 41a10 10 0 0 1 10 10v10a10 10 0 0 0 10 10">
</path><g class="non-terminal">
<path d="M138 71h20">
</path><path d="M210 71h20">
</path><rect height="22" width="52" x="158" y="60">
</rect><text x="184" y="75">
expr</text></g><path d="M230 71a10 10 0 0 0 10 -10v-10a10 10 0 0 1 10 -10">
</path></g><path d="M250 41h10">
</path><path d="M118 41a10 10 0 0 0 -10 10v40a10 10 0 0 0 10 10">
</path><g class="terminal">
<path d="M118 101h52">
</path><path d="M198 101h52">
</path><rect height="22" rx="10" ry="10" width="28" x="170" y="90">
</rect><text x="184" y="105">
;</text></g><path d="M250 101a10 10 0 0 0 10 -10v-40a10 10 0 0 0 -10 -10">
</path></g><path d="M260 41h20">
</path></g><path d="M280 41h10">
</path><g class="terminal">
<path d="M290 41h0">
</path><path d="M318 41h0">
</path><rect height="22" rx="10" ry="10" width="28" x="290" y="30">
</rect><text x="304" y="45">
}</text></g><path d="M318 41h10">
</path></g><path d="M 328 41 h 20 m -10 -10 v 20 m 10 -20 v 20">
</path></g></svg>