<svg class="railroad-diagram" height="72" viewBox="0 0 529 72" width="529">
<g transform="translate(.5 .5)">
<path d="M 20 31 v 20 m 10 -20 v 20 m -10 -10 h 20.5">
</path><g>
<path d="M40 41h0">
</path><path d="M488 41h0">
</path><path d="M40 41h10">
</path><g class="terminal">
<path d="M50 41h0">
</path><path d="M102 41h0">
</path><rect height="22" rx="10" ry="10" width="52" x="50" y="30">
</rect><text x="76" y="45">
bind</text></g><path d="M102 41h10">
</path><path d="M112 41h10">
</path><g class="non-terminal">
<path d="M122 41h0">
</path><path d="M174 41h0">
</path><rect height="22" width="52" x="122" y="30">
</rect><text x="148" y="45">
noun</text></g><path d="M174 41h10">
</path><g>
<path d="M184 41h0">
</path><path d="M352 41h0">
</path><path d="M184 41a10 10 0 0 0 10 -10v0a10 10 0 0 1 10 -10">
</path><g>
<path d="M204 21h128">
</path></g><path d="M332 21a10 10 0 0 1 10 10v0a10 10 0 0 0 10 10">
</path><path d="M184 41h20">
</path><g>
<path d="M204 41h0">
</path><path d="M332 41h0">
</path><path d="M204 41h10">
</path><g class="terminal">
<path d="M214 41h0">
</path><path d="M242 41h0">
</path><rect height="22" rx="10" ry="10" width="28" x="214" y="30">
</rect><text x="228" y="45">
:</text></g><path d="M242 41h10">
</path><path d="M252 41h10">
</path><g class="non-terminal">
<path d="M262 41h0">
</path><path d="M322 41h0">
</path><rect height="22" width="60" x="262" y="30">
</rect><text x="292" y="45">
guard</text></g><path d="M322 41h10">
</path></g><path d="M332 41h20">
</path></g><path d="M352 41h10">
</path><g class="terminal">
<path d="M362 41h0">
</path><path d="M478 41h0">
</path><rect height="22" rx="10" ry="10" width="116" x="362" y="30">
</rect><text x="420" y="45">
objectExpr@@</text></g><path d="M478 41h10">
</path></g><path d="M 488 41 h 20 m -10 -10 v 20 m 10 -20 v 20">
</path></g></svg>