<svg class="railroad-diagram" height="162" viewBox="0 0 665 162" width="665">
<g transform="translate(.5 .5)">
<path d="M 20 21 v 20 m 10 -20 v 20 m -10 -10 h 20.5">
</path><g>
<path d="M40 31h0">
</path><path d="M624 31h0">
</path><path d="M40 31h20">
</path><g class="non-terminal">
<path d="M60 31h246">
</path><path d="M358 31h246">
</path><rect height="22" width="52" x="306" y="20">
</rect><text x="332" y="35">
prim</text></g><path d="M604 31h20">
</path><path d="M40 31a10 10 0 0 1 10 10v20a10 10 0 0 0 10 10">
</path><g>
<path d="M60 71h0">
</path><path d="M604 71h0">
</path><path d="M60 71h10">
</path><g class="non-terminal">
<path d="M70 71h0">
</path><path d="M130 71h0">
</path><rect height="22" width="60" x="70" y="60">
</rect><text x="100" y="75">
calls</text></g><path d="M130 71h10">
</path><g>
<path d="M140 71h0">
</path><path d="M396 71h0">
</path><path d="M140 71a10 10 0 0 0 10 -10v0a10 10 0 0 1 10 -10">
</path><g>
<path d="M160 51h216">
</path></g><path d="M376 51a10 10 0 0 1 10 10v0a10 10 0 0 0 10 10">
</path><path d="M140 71h20">
</path><g>
<path d="M160 71h0">
</path><path d="M376 71h0">
</path><g>
<path d="M160 71h0">
</path><path d="M236 71h0">
</path><path d="M160 71h20">
</path><g class="terminal">
<path d="M180 71h4">
</path><path d="M212 71h4">
</path><rect height="22" rx="10" ry="10" width="28" x="184" y="60">
</rect><text x="198" y="75">
.</text></g><path d="M216 71h20">
</path><path d="M160 71a10 10 0 0 1 10 10v10a10 10 0 0 0 10 10">
</path><g class="terminal">
<path d="M180 101h0">
</path><path d="M216 101h0">
</path><rect height="22" rx="10" ry="10" width="36" x="180" y="90">
</rect><text x="198" y="105">
&lt;-</text></g><path d="M216 101a10 10 0 0 0 10 -10v-10a10 10 0 0 1 10 -10">
</path></g><g>
<path d="M236 71h0">
</path><path d="M376 71h0">
</path><path d="M236 71h20">
</path><g class="terminal">
<path d="M256 71h8">
</path><path d="M348 71h8">
</path><rect height="22" rx="10" ry="10" width="84" x="264" y="60">
</rect><text x="306" y="75">
.String.</text></g><path d="M356 71h20">
</path><path d="M236 71a10 10 0 0 1 10 10v10a10 10 0 0 0 10 10">
</path><g class="terminal">
<path d="M256 101h0">
</path><path d="M356 101h0">
</path><rect height="22" rx="10" ry="10" width="100" x="256" y="90">
</rect><text x="306" y="105">
IDENTIFIER</text></g><path d="M356 101a10 10 0 0 0 10 -10v-10a10 10 0 0 1 10 -10">
</path></g></g><path d="M376 71h20">
</path></g><g>
<path d="M396 71h0">
</path><path d="M604 71h0">
</path><path d="M396 71h10">
</path><g class="terminal">
<path d="M406 71h0">
</path><path d="M434 71h0">
</path><rect height="22" rx="10" ry="10" width="28" x="406" y="60">
</rect><text x="420" y="75">
(</text></g><path d="M434 71h10">
</path><g>
<path d="M444 71h0">
</path><path d="M556 71h0">
</path><path d="M444 71a10 10 0 0 0 10 -10v0a10 10 0 0 1 10 -10">
</path><g>
<path d="M464 51h72">
</path></g><path d="M536 51a10 10 0 0 1 10 10v0a10 10 0 0 0 10 10">
</path><path d="M444 71h20">
</path><g>
<path d="M464 71h0">
</path><path d="M536 71h0">
</path><path d="M464 71h10">
</path><g class="non-terminal">
<path d="M474 71h0">
</path><path d="M526 71h0">
</path><rect height="22" width="52" x="474" y="60">
</rect><text x="500" y="75">
expr</text></g><path d="M526 71h10">
</path><path d="M474 71a10 10 0 0 0 -10 10v10a10 10 0 0 0 10 10">
</path><g class="terminal">
<path d="M474 101h12">
</path><path d="M514 101h12">
</path><rect height="22" rx="10" ry="10" width="28" x="486" y="90">
</rect><text x="500" y="105">
,</text></g><path d="M526 101a10 10 0 0 0 10 -10v-10a10 10 0 0 0 -10 -10">
</path></g><path d="M536 71h20">
</path></g><path d="M556 71h10">
</path><g class="terminal">
<path d="M566 71h0">
</path><path d="M594 71h0">
</path><rect height="22" rx="10" ry="10" width="28" x="566" y="60">
</rect><text x="580" y="75">
)</text></g><path d="M594 71h10">
</path></g></g><path d="M604 71a10 10 0 0 0 10 -10v-20a10 10 0 0 1 10 -10">
</path><path d="M40 31a10 10 0 0 1 10 10v80a10 10 0 0 0 10 10">
</path><g class="non-terminal">
<path d="M60 131h234">
</path><path d="M370 131h234">
</path><rect height="22" width="76" x="294" y="120">
</rect><text x="332" y="135">
getExpr</text></g><path d="M604 131a10 10 0 0 0 10 -10v-80a10 10 0 0 1 10 -10">
</path></g><path d="M 624 31 h 20 m -10 -10 v 20 m 10 -20 v 20">
</path></g></svg>