<svg class="railroad-diagram" height="72" viewBox="0 0 281 72" width="281">
<g transform="translate(.5 .5)">
<path d="M 20 31 v 20 m 10 -20 v 20 m -10 -10 h 20.5">
</path><g>
<path d="M40 41h0">
</path><path d="M240 41h0">
</path><path d="M40 41h10">
</path><g class="non-terminal">
<path d="M50 41h0">
</path><path d="M110 41h0">
</path><rect height="22" width="60" x="50" y="30">
</rect><text x="80" y="45">
calls</text></g><path d="M110 41h10">
</path><g>
<path d="M120 41h0">
</path><path d="M240 41h0">
</path><path d="M120 41a10 10 0 0 0 10 -10v0a10 10 0 0 1 10 -10">
</path><g>
<path d="M140 21h80">
</path></g><path d="M220 21a10 10 0 0 1 10 10v0a10 10 0 0 0 10 10">
</path><path d="M120 41h20">
</path><g>
<path d="M140 41h0">
</path><path d="M220 41h0">
</path><path d="M140 41h10">
</path><g class="non-terminal">
<path d="M150 41h0">
</path><path d="M210 41h0">
</path><rect height="22" width="60" x="150" y="30">
</rect><text x="180" y="45">
curry</text></g><path d="M210 41h10">
</path></g><path d="M220 41h20">
</path></g></g><path d="M 240 41 h 20 m -10 -10 v 20 m 10 -20 v 20">
</path></g></svg>