<svg class="railroad-diagram" height="92" viewBox="0 0 297 92" width="297">
<g transform="translate(.5 .5)">
<path d="M 20 21 v 20 m 10 -20 v 20 m -10 -10 h 20.5">
</path><g>
<path d="M40 31h0">
</path><path d="M256 31h0">
</path><g>
<path d="M40 31h0">
</path><path d="M116 31h0">
</path><path d="M40 31h20">
</path><g class="terminal">
<path d="M60 31h4">
</path><path d="M92 31h4">
</path><rect height="22" rx="10" ry="10" width="28" x="64" y="20">
</rect><text x="78" y="35">
.</text></g><path d="M96 31h20">
</path><path d="M40 31a10 10 0 0 1 10 10v10a10 10 0 0 0 10 10">
</path><g class="terminal">
<path d="M60 61h0">
</path><path d="M96 61h0">
</path><rect height="22" rx="10" ry="10" width="36" x="60" y="50">
</rect><text x="78" y="65">
&lt;-</text></g><path d="M96 61a10 10 0 0 0 10 -10v-10a10 10 0 0 1 10 -10">
</path></g><g>
<path d="M116 31h0">
</path><path d="M256 31h0">
</path><path d="M116 31h20">
</path><g class="terminal">
<path d="M136 31h8">
</path><path d="M228 31h8">
</path><rect height="22" rx="10" ry="10" width="84" x="144" y="20">
</rect><text x="186" y="35">
.String.</text></g><path d="M236 31h20">
</path><path d="M116 31a10 10 0 0 1 10 10v10a10 10 0 0 0 10 10">
</path><g class="terminal">
<path d="M136 61h0">
</path><path d="M236 61h0">
</path><rect height="22" rx="10" ry="10" width="100" x="136" y="50">
</rect><text x="186" y="65">
IDENTIFIER</text></g><path d="M236 61a10 10 0 0 0 10 -10v-10a10 10 0 0 1 10 -10">
</path></g></g><path d="M 256 31 h 20 m -10 -10 v 20 m 10 -20 v 20">
</path></g></svg>