<svg class="railroad-diagram" height="132" viewBox="0 0 725 132" width="725">
<g transform="translate(.5 .5)">
<path d="M 20 31 v 20 m 10 -20 v 20 m -10 -10 h 20.5">
</path><g>
<path d="M40 41h0">
</path><path d="M684 41h0">
</path><path d="M40 41h10">
</path><g class="terminal">
<path d="M50 41h0">
</path><path d="M94 41h0">
</path><rect height="22" rx="10" ry="10" width="44" x="50" y="30">
</rect><text x="72" y="45">
def</text></g><path d="M94 41h10">
</path><g>
<path d="M104 41h0">
</path><path d="M684 41h0">
</path><path d="M104 41h20">
</path><g>
<path d="M124 41h0">
</path><path d="M664 41h0">
</path><g>
<path d="M124 41h0">
</path><path d="M476 41h0">
</path><path d="M124 41h20">
</path><g>
<path d="M144 41h0">
</path><path d="M456 41h0">
</path><path d="M144 41h10">
</path><g class="terminal">
<path d="M154 41h0">
</path><path d="M206 41h0">
</path><rect height="22" rx="10" ry="10" width="52" x="154" y="30">
</rect><text x="180" y="45">
bind</text></g><path d="M206 41h10">
</path><path d="M216 41h10">
</path><g class="non-terminal">
<path d="M226 41h0">
</path><path d="M278 41h0">
</path><rect height="22" width="52" x="226" y="30">
</rect><text x="252" y="45">
noun</text></g><path d="M278 41h10">
</path><g>
<path d="M288 41h0">
</path><path d="M456 41h0">
</path><path d="M288 41a10 10 0 0 0 10 -10v0a10 10 0 0 1 10 -10">
</path><g>
<path d="M308 21h128">
</path></g><path d="M436 21a10 10 0 0 1 10 10v0a10 10 0 0 0 10 10">
</path><path d="M288 41h20">
</path><g>
<path d="M308 41h0">
</path><path d="M436 41h0">
</path><path d="M308 41h10">
</path><g class="terminal">
<path d="M318 41h0">
</path><path d="M346 41h0">
</path><rect height="22" rx="10" ry="10" width="28" x="318" y="30">
</rect><text x="332" y="45">
:</text></g><path d="M346 41h10">
</path><path d="M356 41h10">
</path><g class="non-terminal">
<path d="M366 41h0">
</path><path d="M426 41h0">
</path><rect height="22" width="60" x="366" y="30">
</rect><text x="396" y="45">
guard</text></g><path d="M426 41h10">
</path></g><path d="M436 41h20">
</path></g></g><path d="M456 41h20">
</path><path d="M124 41a10 10 0 0 1 10 10v10a10 10 0 0 0 10 10">
</path><g class="non-terminal">
<path d="M144 71h130">
</path><path d="M326 71h130">
</path><rect height="22" width="52" x="274" y="60">
</rect><text x="300" y="75">
noun</text></g><path d="M456 71a10 10 0 0 0 10 -10v-10a10 10 0 0 1 10 -10">
</path></g><g>
<path d="M476 41h0">
</path><path d="M664 41h0">
</path><path d="M476 41h20">
</path><g class="terminal">
<path d="M496 41h0">
</path><path d="M644 41h0">
</path><rect height="22" rx="10" ry="10" width="148" x="496" y="30">
</rect><text x="570" y="45">
objectFunction@@</text></g><path d="M644 41h20">
</path><path d="M476 41a10 10 0 0 1 10 10v10a10 10 0 0 0 10 10">
</path><g class="non-terminal">
<path d="M496 71h40">
</path><path d="M604 71h40">
</path><rect height="22" width="68" x="536" y="60">
</rect><text x="570" y="75">
assign</text></g><path d="M644 71a10 10 0 0 0 10 -10v-10a10 10 0 0 1 10 -10">
</path></g></g><path d="M664 41h20">
</path><path d="M104 41a10 10 0 0 1 10 10v40a10 10 0 0 0 10 10">
</path><g class="non-terminal">
<path d="M124 101h236">
</path><path d="M428 101h236">
</path><rect height="22" width="68" x="360" y="90">
</rect><text x="394" y="105">
assign</text></g><path d="M664 101a10 10 0 0 0 10 -10v-40a10 10 0 0 1 10 -10">
</path></g></g><path d="M 684 41 h 20 m -10 -10 v 20 m 10 -20 v 20">
</path></g></svg>