<svg class="railroad-diagram" height="81" viewBox="0 0 377 81" width="377">
<g transform="translate(.5 .5)">
<path d="M 20 31 v 20 m 10 -20 v 20 m -10 -10 h 20.5">
</path><g>
<path d="M40 41h0">
</path><path d="M336 41h0">
</path><path d="M40 41h10">
</path><g class="terminal">
<path d="M50 41h0">
</path><path d="M118 41h0">
</path><rect height="22" rx="10" ry="10" width="68" x="50" y="30">
</rect><text x="84" y="45">
export</text></g><path d="M118 41h10">
</path><path d="M128 41h10">
</path><g class="terminal">
<path d="M138 41h0">
</path><path d="M166 41h0">
</path><rect height="22" rx="10" ry="10" width="28" x="138" y="30">
</rect><text x="152" y="45">
(</text></g><path d="M166 41h10">
</path><g>
<path d="M176 41h0">
</path><path d="M288 41h0">
</path><path d="M176 41a10 10 0 0 0 10 -10v0a10 10 0 0 1 10 -10">
</path><g>
<path d="M196 21h72">
</path></g><path d="M268 21a10 10 0 0 1 10 10v0a10 10 0 0 0 10 10">
</path><path d="M176 41h20">
</path><g>
<path d="M196 41h0">
</path><path d="M268 41h0">
</path><path d="M196 41h10">
</path><g class="non-terminal">
<path d="M206 41h0">
</path><path d="M258 41h0">
</path><rect height="22" width="52" x="206" y="30">
</rect><text x="232" y="45">
noun</text></g><path d="M258 41h10">
</path><path d="M206 41a10 10 0 0 0 -10 10v0a10 10 0 0 0 10 10">
</path><g>
<path d="M206 61h52">
</path></g><path d="M258 61a10 10 0 0 0 10 -10v0a10 10 0 0 0 -10 -10">
</path></g><path d="M268 41h20">
</path></g><path d="M288 41h10">
</path><g class="terminal">
<path d="M298 41h0">
</path><path d="M326 41h0">
</path><rect height="22" rx="10" ry="10" width="28" x="298" y="30">
</rect><text x="312" y="45">
)</text></g><path d="M326 41h10">
</path></g><path d="M 336 41 h 20 m -10 -10 v 20 m 10 -20 v 20">
</path></g></svg>