<svg class="railroad-diagram" height="72" viewBox="0 0 641 72" width="641">
<g transform="translate(.5 .5)">
<path d="M 20 31 v 20 m 10 -20 v 20 m -10 -10 h 20.5">
</path><g>
<path d="M40 41h0">
</path><path d="M600 41h0">
</path><path d="M40 41h10">
</path><g class="terminal">
<path d="M50 41h0">
</path><path d="M118 41h0">
</path><rect height="22" rx="10" ry="10" width="68" x="50" y="30">
</rect><text x="84" y="45">
escape</text></g><path d="M118 41h10">
</path><path d="M128 41h10">
</path><g class="non-terminal">
<path d="M138 41h0">
</path><path d="M214 41h0">
</path><rect height="22" width="76" x="138" y="30">
</rect><text x="176" y="45">
pattern</text></g><path d="M214 41h10">
</path><path d="M224 41h10">
</path><g class="non-terminal">
<path d="M234 41h0">
</path><path d="M294 41h0">
</path><rect height="22" width="60" x="234" y="30">
</rect><text x="264" y="45">
block</text></g><path d="M294 41h10">
</path><g>
<path d="M304 41h0">
</path><path d="M600 41h0">
</path><path d="M304 41a10 10 0 0 0 10 -10v0a10 10 0 0 1 10 -10">
</path><g>
<path d="M324 21h256">
</path></g><path d="M580 21a10 10 0 0 1 10 10v0a10 10 0 0 0 10 10">
</path><path d="M304 41h20">
</path><g>
<path d="M324 41h0">
</path><path d="M580 41h0">
</path><path d="M324 41h10">
</path><g class="terminal">
<path d="M334 41h0">
</path><path d="M394 41h0">
</path><rect height="22" rx="10" ry="10" width="60" x="334" y="30">
</rect><text x="364" y="45">
catch</text></g><path d="M394 41h10">
</path><path d="M404 41h10">
</path><g class="non-terminal">
<path d="M414 41h0">
</path><path d="M490 41h0">
</path><rect height="22" width="76" x="414" y="30">
</rect><text x="452" y="45">
pattern</text></g><path d="M490 41h10">
</path><path d="M500 41h10">
</path><g class="non-terminal">
<path d="M510 41h0">
</path><path d="M570 41h0">
</path><rect height="22" width="60" x="510" y="30">
</rect><text x="540" y="45">
block</text></g><path d="M570 41h10">
</path></g><path d="M580 41h20">
</path></g></g><path d="M 600 41 h 20 m -10 -10 v 20 m 10 -20 v 20">
</path></g></svg>