<svg class="railroad-diagram" height="102" viewBox="0 0 353 102" width="353">
<g transform="translate(.5 .5)">
<path d="M 20 31 v 20 m 10 -20 v 20 m -10 -10 h 20.5">
</path><g>
<path d="M40 41h0">
</path><path d="M312 41h0">
</path><path d="M40 41h10">
</path><g class="terminal">
<path d="M50 41h0">
</path><path d="M86 41h0">
</path><rect height="22" rx="10" ry="10" width="36" x="50" y="30">
</rect><text x="68" y="45">
fn</text></g><path d="M86 41h10">
</path><g>
<path d="M96 41h0">
</path><path d="M232 41h0">
</path><path d="M96 41a10 10 0 0 0 10 -10v0a10 10 0 0 1 10 -10">
</path><g>
<path d="M116 21h96">
</path></g><path d="M212 21a10 10 0 0 1 10 10v0a10 10 0 0 0 10 10">
</path><path d="M96 41h20">
</path><g>
<path d="M116 41h0">
</path><path d="M212 41h0">
</path><path d="M116 41h10">
</path><g class="non-terminal">
<path d="M126 41h0">
</path><path d="M202 41h0">
</path><rect height="22" width="76" x="126" y="30">
</rect><text x="164" y="45">
pattern</text></g><path d="M202 41h10">
</path><path d="M126 41a10 10 0 0 0 -10 10v10a10 10 0 0 0 10 10">
</path><g class="terminal">
<path d="M126 71h24">
</path><path d="M178 71h24">
</path><rect height="22" rx="10" ry="10" width="28" x="150" y="60">
</rect><text x="164" y="75">
,</text></g><path d="M202 71a10 10 0 0 0 10 -10v-10a10 10 0 0 0 -10 -10">
</path></g><path d="M212 41h20">
</path></g><path d="M232 41h10">
</path><g class="non-terminal">
<path d="M242 41h0">
</path><path d="M302 41h0">
</path><rect height="22" width="60" x="242" y="30">
</rect><text x="272" y="45">
block</text></g><path d="M302 41h10">
</path></g><path d="M 312 41 h 20 m -10 -10 v 20 m 10 -20 v 20">
</path></g></svg>