<svg class="railroad-diagram" height="132" viewBox="0 0 469 132" width="469">
<g transform="translate(.5 .5)">
<path d="M 20 31 v 20 m 10 -20 v 20 m -10 -10 h 20.5">
</path><g>
<path d="M40 41h0">
</path><path d="M428 41h0">
</path><path d="M40 41h20">
</path><g>
<path d="M60 41h0">
</path><path d="M408 41h0">
</path><path d="M60 41h10">
</path><g class="terminal">
<path d="M70 41h0">
</path><path d="M170 41h0">
</path><rect height="22" rx="10" ry="10" width="100" x="70" y="30">
</rect><text x="120" y="45">
IDENTIFIER</text></g><path d="M170 41h10">
</path><g>
<path d="M180 41h0">
</path><path d="M408 41h0">
</path><path d="M180 41a10 10 0 0 0 10 -10v0a10 10 0 0 1 10 -10">
</path><g>
<path d="M200 21h188">
</path></g><path d="M388 21a10 10 0 0 1 10 10v0a10 10 0 0 0 10 10">
</path><path d="M180 41h20">
</path><g>
<path d="M200 41h0">
</path><path d="M388 41h0">
</path><path d="M200 41h10">
</path><g class="terminal">
<path d="M210 41h0">
</path><path d="M238 41h0">
</path><rect height="22" rx="10" ry="10" width="28" x="210" y="30">
</rect><text x="224" y="45">
[</text></g><path d="M238 41h10">
</path><path d="M248 41h10">
</path><g>
<path d="M258 41h0">
</path><path d="M330 41h0">
</path><path d="M258 41h10">
</path><g class="non-terminal">
<path d="M268 41h0">
</path><path d="M320 41h0">
</path><rect height="22" width="52" x="268" y="30">
</rect><text x="294" y="45">
expr</text></g><path d="M320 41h10">
</path><path d="M268 41a10 10 0 0 0 -10 10v10a10 10 0 0 0 10 10">
</path><g class="terminal">
<path d="M268 71h12">
</path><path d="M308 71h12">
</path><rect height="22" rx="10" ry="10" width="28" x="280" y="60">
</rect><text x="294" y="75">
,</text></g><path d="M320 71a10 10 0 0 0 10 -10v-10a10 10 0 0 0 -10 -10">
</path></g><path d="M330 41h10">
</path><path d="M340 41h10">
</path><g class="terminal">
<path d="M350 41h0">
</path><path d="M378 41h0">
</path><rect height="22" rx="10" ry="10" width="28" x="350" y="30">
</rect><text x="364" y="45">
]</text></g><path d="M378 41h10">
</path></g><path d="M388 41h20">
</path></g></g><path d="M408 41h20">
</path><path d="M40 41a10 10 0 0 1 10 10v40a10 10 0 0 0 10 10">
</path><g>
<path d="M60 101h90">
</path><path d="M318 101h90">
</path><path d="M150 101h10">
</path><g class="terminal">
<path d="M160 101h0">
</path><path d="M188 101h0">
</path><rect height="22" rx="10" ry="10" width="28" x="160" y="90">
</rect><text x="174" y="105">
(</text></g><path d="M188 101h10">
</path><path d="M198 101h10">
</path><g class="non-terminal">
<path d="M208 101h0">
</path><path d="M260 101h0">
</path><rect height="22" width="52" x="208" y="90">
</rect><text x="234" y="105">
expr</text></g><path d="M260 101h10">
</path><path d="M270 101h10">
</path><g class="terminal">
<path d="M280 101h0">
</path><path d="M308 101h0">
</path><rect height="22" rx="10" ry="10" width="28" x="280" y="90">
</rect><text x="294" y="105">
)</text></g><path d="M308 101h10">
</path></g><path d="M408 101a10 10 0 0 0 10 -10v-40a10 10 0 0 1 10 -10">
</path></g><path d="M 428 41 h 20 m -10 -10 v 20 m 10 -20 v 20">
</path></g></svg>