<svg class="railroad-diagram" height="102" viewBox="0 0 721 102" width="721">
<g transform="translate(.5 .5)">
<path d="M 20 31 v 20 m 10 -20 v 20 m -10 -10 h 20.5">
</path><g>
<path d="M40 41h0">
</path><path d="M680 41h0">
</path><path d="M40 41h10">
</path><g class="terminal">
<path d="M50 41h0">
</path><path d="M86 41h0">
</path><rect height="22" rx="10" ry="10" width="36" x="50" y="30">
</rect><text x="68" y="45">
if</text></g><path d="M86 41h10">
</path><path d="M96 41h10">
</path><g class="terminal">
<path d="M106 41h0">
</path><path d="M134 41h0">
</path><rect height="22" rx="10" ry="10" width="28" x="106" y="30">
</rect><text x="120" y="45">
(</text></g><path d="M134 41h10">
</path><path d="M144 41h10">
</path><g class="non-terminal">
<path d="M154 41h0">
</path><path d="M206 41h0">
</path><rect height="22" width="52" x="154" y="30">
</rect><text x="180" y="45">
expr</text></g><path d="M206 41h10">
</path><path d="M216 41h10">
</path><g class="terminal">
<path d="M226 41h0">
</path><path d="M254 41h0">
</path><rect height="22" rx="10" ry="10" width="28" x="226" y="30">
</rect><text x="240" y="45">
)</text></g><path d="M254 41h10">
</path><path d="M264 41h10">
</path><g class="non-terminal">
<path d="M274 41h0">
</path><path d="M334 41h0">
</path><rect height="22" width="60" x="274" y="30">
</rect><text x="304" y="45">
block</text></g><path d="M334 41h10">
</path><g>
<path d="M344 41h0">
</path><path d="M680 41h0">
</path><path d="M344 41a10 10 0 0 0 10 -10v0a10 10 0 0 1 10 -10">
</path><g>
<path d="M364 21h296">
</path></g><path d="M660 21a10 10 0 0 1 10 10v0a10 10 0 0 0 10 10">
</path><path d="M344 41h20">
</path><g>
<path d="M364 41h0">
</path><path d="M660 41h0">
</path><path d="M364 41h10">
</path><g class="terminal">
<path d="M374 41h0">
</path><path d="M426 41h0">
</path><rect height="22" rx="10" ry="10" width="52" x="374" y="30">
</rect><text x="400" y="45">
else</text></g><path d="M426 41h10">
</path><g>
<path d="M436 41h0">
</path><path d="M660 41h0">
</path><path d="M436 41h20">
</path><g>
<path d="M456 41h0">
</path><path d="M640 41h0">
</path><path d="M456 41h10">
</path><g class="terminal">
<path d="M466 41h0">
</path><path d="M502 41h0">
</path><rect height="22" rx="10" ry="10" width="36" x="466" y="30">
</rect><text x="484" y="45">
if</text></g><path d="M502 41h10">
</path><path d="M512 41h10">
</path><g class="non-terminal">
<path d="M522 41h0">
</path><path d="M630 41h0">
</path><rect height="22" width="108" x="522" y="30">
</rect><text x="576" y="45">
blockExpr@@</text></g><path d="M630 41h10">
</path></g><path d="M640 41h20">
</path><path d="M436 41a10 10 0 0 1 10 10v10a10 10 0 0 0 10 10">
</path><g class="non-terminal">
<path d="M456 71h62">
</path><path d="M578 71h62">
</path><rect height="22" width="60" x="518" y="60">
</rect><text x="548" y="75">
block</text></g><path d="M640 71a10 10 0 0 0 10 -10v-10a10 10 0 0 1 10 -10">
</path></g></g><path d="M660 41h20">
</path></g></g><path d="M 680 41 h 20 m -10 -10 v 20 m 10 -20 v 20">
</path></g></svg>