<svg class="railroad-diagram" height="81" viewBox="0 0 217 81" width="217">
<g transform="translate(.5 .5)">
<path d="M 20 31 v 20 m 10 -20 v 20 m -10 -10 h 20.5">
</path><g>
<path d="M40 41h0">
</path><path d="M176 41h0">
</path><path d="M40 41a10 10 0 0 0 10 -10v0a10 10 0 0 1 10 -10">
</path><g>
<path d="M60 21h96">
</path></g><path d="M156 21a10 10 0 0 1 10 10v0a10 10 0 0 0 10 10">
</path><path d="M40 41h20">
</path><g>
<path d="M60 41h0">
</path><path d="M156 41h0">
</path><path d="M60 41h10">
</path><g class="non-terminal">
<path d="M70 41h0">
</path><path d="M146 41h0">
</path><rect height="22" width="76" x="70" y="30">
</rect><text x="108" y="45">
pattern</text></g><path d="M146 41h10">
</path><path d="M70 41a10 10 0 0 0 -10 10v0a10 10 0 0 0 10 10">
</path><g>
<path d="M70 61h76">
</path></g><path d="M146 61a10 10 0 0 0 10 -10v0a10 10 0 0 0 -10 -10">
</path></g><path d="M156 41h20">
</path></g><path d="M 176 41 h 20 m -10 -10 v 20 m 10 -20 v 20">
</path></g></svg>