<svg class="railroad-diagram" height="82" viewBox="0 0 501 82" width="501">
<g transform="translate(.5 .5)">
<path d="M 20 41 v 20 m 10 -20 v 20 m -10 -10 h 20.5">
</path><g>
<path d="M40 51h0">
</path><path d="M460 51h0">
</path><g>
<path d="M40 51h0">
</path><path d="M380 51h0">
</path><path d="M40 51a10 10 0 0 0 10 -10v-9a10 10 0 0 1 10 -10">
</path><g>
<path d="M60 22h300">
</path></g><path d="M360 22a10 10 0 0 1 10 10v9a10 10 0 0 0 10 10">
</path><path d="M40 51h20">
</path><g>
<path d="M60 51h0">
</path><path d="M360 51h0">
</path><path d="M60 51h10">
</path><g class="terminal">
<path d="M70 51h0">
</path><path d="M138 51h0">
</path><rect height="22" rx="10" ry="10" width="68" x="70" y="40">
</rect><text x="104" y="55">
module</text></g><path d="M138 51h10">
</path><path d="M148 51h10">
</path><g class="non-terminal">
<path d="M158 51h0">
</path><path d="M234 51h0">
</path><rect height="22" width="76" x="158" y="40">
</rect><text x="196" y="55">
imports</text></g><path d="M234 51h10">
</path><g>
<path d="M244 51h0">
</path><path d="M360 51h0">
</path><path d="M244 51a10 10 0 0 0 10 -10v0a10 10 0 0 1 10 -10">
</path><g>
<path d="M264 31h76">
</path></g><path d="M340 31a10 10 0 0 1 10 10v0a10 10 0 0 0 10 10">
</path><path d="M244 51h20">
</path><g class="non-terminal">
<path d="M264 51h0">
</path><path d="M340 51h0">
</path><rect height="22" width="76" x="264" y="40">
</rect><text x="302" y="55">
exports</text></g><path d="M340 51h20">
</path></g></g><path d="M360 51h20">
</path></g><path d="M380 51h10">
</path><g class="non-terminal">
<path d="M390 51h0">
</path><path d="M450 51h0">
</path><rect height="22" width="60" x="390" y="40">
</rect><text x="420" y="55">
block</text></g><path d="M450 51h10">
</path></g><path d="M 460 51 h 20 m -10 -10 v 20 m 10 -20 v 20">
</path></g></svg>