<svg class="railroad-diagram" height="92" viewBox="0 0 441 92" width="441">
<g transform="translate(.5 .5)">
<path d="M 20 21 v 20 m 10 -20 v 20 m -10 -10 h 20.5">
</path><g>
<path d="M40 31h0">
</path><path d="M400 31h0">
</path><path d="M40 31h10">
</path><g class="terminal">
<path d="M50 31h0">
</path><path d="M102 31h0">
</path><rect height="22" rx="10" ry="10" width="52" x="50" y="20">
</rect><text x="76" y="35">
meta</text></g><path d="M102 31h10">
</path><path d="M112 31h10">
</path><g class="terminal">
<path d="M122 31h0">
</path><path d="M150 31h0">
</path><rect height="22" rx="10" ry="10" width="28" x="122" y="20">
</rect><text x="136" y="35">
.</text></g><path d="M150 31h10">
</path><g>
<path d="M160 31h0">
</path><path d="M400 31h0">
</path><path d="M160 31h20">
</path><g>
<path d="M180 31h4">
</path><path d="M376 31h4">
</path><path d="M184 31h10">
</path><g class="terminal">
<path d="M194 31h0">
</path><path d="M270 31h0">
</path><rect height="22" rx="10" ry="10" width="76" x="194" y="20">
</rect><text x="232" y="35">
context</text></g><path d="M270 31h10">
</path><path d="M280 31h10">
</path><g class="terminal">
<path d="M290 31h0">
</path><path d="M318 31h0">
</path><rect height="22" rx="10" ry="10" width="28" x="290" y="20">
</rect><text x="304" y="35">
(</text></g><path d="M318 31h10">
</path><path d="M328 31h10">
</path><g class="terminal">
<path d="M338 31h0">
</path><path d="M366 31h0">
</path><rect height="22" rx="10" ry="10" width="28" x="338" y="20">
</rect><text x="352" y="35">
)</text></g><path d="M366 31h10">
</path></g><path d="M380 31h20">
</path><path d="M160 31a10 10 0 0 1 10 10v10a10 10 0 0 0 10 10">
</path><g>
<path d="M180 61h0">
</path><path d="M380 61h0">
</path><path d="M180 61h10">
</path><g class="terminal">
<path d="M190 61h0">
</path><path d="M274 61h0">
</path><rect height="22" rx="10" ry="10" width="84" x="190" y="50">
</rect><text x="232" y="65">
getState</text></g><path d="M274 61h10">
</path><path d="M284 61h10">
</path><g class="terminal">
<path d="M294 61h0">
</path><path d="M322 61h0">
</path><rect height="22" rx="10" ry="10" width="28" x="294" y="50">
</rect><text x="308" y="65">
(</text></g><path d="M322 61h10">
</path><path d="M332 61h10">
</path><g class="terminal">
<path d="M342 61h0">
</path><path d="M370 61h0">
</path><rect height="22" rx="10" ry="10" width="28" x="342" y="50">
</rect><text x="356" y="65">
)</text></g><path d="M370 61h10">
</path></g><path d="M380 61a10 10 0 0 0 10 -10v-10a10 10 0 0 1 10 -10">
</path></g></g><path d="M 400 31 h 20 m -10 -10 v 20 m 10 -20 v 20">
</path></g></svg>