<svg class="railroad-diagram" height="252" viewBox="0 0 489 252" width="489">
<g transform="translate(.5 .5)">
<path d="M 20 31 v 20 m 10 -20 v 20 m -10 -10 h 20.5">
</path><g>
<path d="M40 41h0">
</path><path d="M448 41h0">
</path><path d="M40 41h20">
</path><g>
<path d="M60 41h0">
</path><path d="M428 41h0">
</path><g>
<path d="M60 41h0">
</path><path d="M260 41h0">
</path><path d="M60 41h20">
</path><g>
<path d="M80 41h0">
</path><path d="M240 41h0">
</path><path d="M80 41h10">
</path><g class="terminal">
<path d="M90 41h0">
</path><path d="M126 41h0">
</path><rect height="22" rx="10" ry="10" width="36" x="90" y="30">
</rect><text x="108" y="45">
::</text></g><path d="M126 41h10">
</path><path d="M136 41h10">
</path><g class="terminal">
<path d="M146 41h0">
</path><path d="M230 41h0">
</path><rect height="22" rx="10" ry="10" width="84" x="146" y="30">
</rect><text x="188" y="45">
.String.</text></g><path d="M230 41h10">
</path></g><path d="M240 41h20">
</path><path d="M60 41a10 10 0 0 1 10 10v10a10 10 0 0 0 10 10">
</path><g class="terminal">
<path d="M80 71h30">
</path><path d="M210 71h30">
</path><rect height="22" rx="10" ry="10" width="100" x="110" y="60">
</rect><text x="160" y="75">
IDENTIFIER</text></g><path d="M240 71a10 10 0 0 0 10 -10v-10a10 10 0 0 1 10 -10">
</path></g><g>
<path d="M260 41h0">
</path><path d="M428 41h0">
</path><path d="M260 41a10 10 0 0 0 10 -10v0a10 10 0 0 1 10 -10">
</path><g>
<path d="M280 21h128">
</path></g><path d="M408 21a10 10 0 0 1 10 10v0a10 10 0 0 0 10 10">
</path><path d="M260 41h20">
</path><g>
<path d="M280 41h0">
</path><path d="M408 41h0">
</path><path d="M280 41h10">
</path><g class="terminal">
<path d="M290 41h0">
</path><path d="M318 41h0">
</path><rect height="22" rx="10" ry="10" width="28" x="290" y="30">
</rect><text x="304" y="45">
:</text></g><path d="M318 41h10">
</path><path d="M328 41h10">
</path><g class="non-terminal">
<path d="M338 41h0">
</path><path d="M398 41h0">
</path><rect height="22" width="60" x="338" y="30">
</rect><text x="368" y="45">
guard</text></g><path d="M398 41h10">
</path></g><path d="M408 41h20">
</path></g></g><path d="M428 41h20">
</path><path d="M40 41a10 10 0 0 1 10 10v50a10 10 0 0 0 10 10">
</path><g>
<path d="M60 111h32">
</path><path d="M396 111h32">
</path><path d="M92 111h10">
</path><g class="terminal">
<path d="M102 111h0">
</path><path d="M146 111h0">
</path><rect height="22" rx="10" ry="10" width="44" x="102" y="100">
</rect><text x="124" y="115">
var</text></g><path d="M146 111h10">
</path><path d="M156 111h10">
</path><g class="non-terminal">
<path d="M166 111h0">
</path><path d="M218 111h0">
</path><rect height="22" width="52" x="166" y="100">
</rect><text x="192" y="115">
noun</text></g><path d="M218 111h10">
</path><g>
<path d="M228 111h0">
</path><path d="M396 111h0">
</path><path d="M228 111a10 10 0 0 0 10 -10v0a10 10 0 0 1 10 -10">
</path><g>
<path d="M248 91h128">
</path></g><path d="M376 91a10 10 0 0 1 10 10v0a10 10 0 0 0 10 10">
</path><path d="M228 111h20">
</path><g>
<path d="M248 111h0">
</path><path d="M376 111h0">
</path><path d="M248 111h10">
</path><g class="terminal">
<path d="M258 111h0">
</path><path d="M286 111h0">
</path><rect height="22" rx="10" ry="10" width="28" x="258" y="100">
</rect><text x="272" y="115">
:</text></g><path d="M286 111h10">
</path><path d="M296 111h10">
</path><g class="non-terminal">
<path d="M306 111h0">
</path><path d="M366 111h0">
</path><rect height="22" width="60" x="306" y="100">
</rect><text x="336" y="115">
guard</text></g><path d="M366 111h10">
</path></g><path d="M376 111h20">
</path></g></g><path d="M428 111a10 10 0 0 0 10 -10v-50a10 10 0 0 1 10 -10">
</path><path d="M40 41a10 10 0 0 1 10 10v90a10 10 0 0 0 10 10">
</path><g>
<path d="M60 151h40">
</path><path d="M388 151h40">
</path><path d="M100 151h10">
</path><g class="terminal">
<path d="M110 151h0">
</path><path d="M138 151h0">
</path><rect height="22" rx="10" ry="10" width="28" x="110" y="140">
</rect><text x="124" y="155">
&amp;</text></g><path d="M138 151h10">
</path><path d="M148 151h10">
</path><g class="non-terminal">
<path d="M158 151h0">
</path><path d="M210 151h0">
</path><rect height="22" width="52" x="158" y="140">
</rect><text x="184" y="155">
noun</text></g><path d="M210 151h10">
</path><g>
<path d="M220 151h0">
</path><path d="M388 151h0">
</path><path d="M220 151a10 10 0 0 0 10 -10v0a10 10 0 0 1 10 -10">
</path><g>
<path d="M240 131h128">
</path></g><path d="M368 131a10 10 0 0 1 10 10v0a10 10 0 0 0 10 10">
</path><path d="M220 151h20">
</path><g>
<path d="M240 151h0">
</path><path d="M368 151h0">
</path><path d="M240 151h10">
</path><g class="terminal">
<path d="M250 151h0">
</path><path d="M278 151h0">
</path><rect height="22" rx="10" ry="10" width="28" x="250" y="140">
</rect><text x="264" y="155">
:</text></g><path d="M278 151h10">
</path><path d="M288 151h10">
</path><g class="non-terminal">
<path d="M298 151h0">
</path><path d="M358 151h0">
</path><rect height="22" width="60" x="298" y="140">
</rect><text x="328" y="155">
guard</text></g><path d="M358 151h10">
</path></g><path d="M368 151h20">
</path></g></g><path d="M428 151a10 10 0 0 0 10 -10v-90a10 10 0 0 1 10 -10">
</path><path d="M40 41a10 10 0 0 1 10 10v120a10 10 0 0 0 10 10">
</path><g>
<path d="M60 181h120">
</path><path d="M308 181h120">
</path><path d="M180 181h10">
</path><g class="terminal">
<path d="M190 181h0">
</path><path d="M226 181h0">
</path><rect height="22" rx="10" ry="10" width="36" x="190" y="170">
</rect><text x="208" y="185">
&amp;&amp;</text></g><path d="M226 181h10">
</path><path d="M236 181h10">
</path><g class="non-terminal">
<path d="M246 181h0">
</path><path d="M298 181h0">
</path><rect height="22" width="52" x="246" y="170">
</rect><text x="272" y="185">
noun</text></g><path d="M298 181h10">
</path></g><path d="M428 181a10 10 0 0 0 10 -10v-120a10 10 0 0 1 10 -10">
</path><path d="M40 41a10 10 0 0 1 10 10v160a10 10 0 0 0 10 10">
</path><g>
<path d="M60 221h28">
</path><path d="M400 221h28">
</path><path d="M88 221h10">
</path><g class="terminal">
<path d="M98 221h0">
</path><path d="M150 221h0">
</path><rect height="22" rx="10" ry="10" width="52" x="98" y="210">
</rect><text x="124" y="225">
bind</text></g><path d="M150 221h10">
</path><path d="M160 221h10">
</path><g class="non-terminal">
<path d="M170 221h0">
</path><path d="M222 221h0">
</path><rect height="22" width="52" x="170" y="210">
</rect><text x="196" y="225">
noun</text></g><path d="M222 221h10">
</path><g>
<path d="M232 221h0">
</path><path d="M400 221h0">
</path><path d="M232 221a10 10 0 0 0 10 -10v0a10 10 0 0 1 10 -10">
</path><g>
<path d="M252 201h128">
</path></g><path d="M380 201a10 10 0 0 1 10 10v0a10 10 0 0 0 10 10">
</path><path d="M232 221h20">
</path><g>
<path d="M252 221h0">
</path><path d="M380 221h0">
</path><path d="M252 221h10">
</path><g class="terminal">
<path d="M262 221h0">
</path><path d="M290 221h0">
</path><rect height="22" rx="10" ry="10" width="28" x="262" y="210">
</rect><text x="276" y="225">
:</text></g><path d="M290 221h10">
</path><path d="M300 221h10">
</path><g class="non-terminal">
<path d="M310 221h0">
</path><path d="M370 221h0">
</path><rect height="22" width="60" x="310" y="210">
</rect><text x="340" y="225">
guard</text></g><path d="M370 221h10">
</path></g><path d="M380 221h20">
</path></g></g><path d="M428 221a10 10 0 0 0 10 -10v-160a10 10 0 0 1 10 -10">
</path></g><path d="M 448 41 h 20 m -10 -10 v 20 m 10 -20 v 20">
</path></g></svg>