<svg class="railroad-diagram" height="92" viewBox="0 0 281 92" width="281">
<g transform="translate(.5 .5)">
<path d="M 20 21 v 20 m 10 -20 v 20 m -10 -10 h 20.5">
</path><g>
<path d="M40 31h0">
</path><path d="M240 31h0">
</path><path d="M40 31h20">
</path><g class="terminal">
<path d="M60 31h30">
</path><path d="M190 31h30">
</path><rect height="22" rx="10" ry="10" width="100" x="90" y="20">
</rect><text x="140" y="35">
IDENTIFIER</text></g><path d="M220 31h20">
</path><path d="M40 31a10 10 0 0 1 10 10v10a10 10 0 0 0 10 10">
</path><g>
<path d="M60 61h0">
</path><path d="M220 61h0">
</path><path d="M60 61h10">
</path><g class="terminal">
<path d="M70 61h0">
</path><path d="M106 61h0">
</path><rect height="22" rx="10" ry="10" width="36" x="70" y="50">
</rect><text x="88" y="65">
::</text></g><path d="M106 61h10">
</path><path d="M116 61h10">
</path><g class="terminal">
<path d="M126 61h0">
</path><path d="M210 61h0">
</path><rect height="22" rx="10" ry="10" width="84" x="126" y="50">
</rect><text x="168" y="65">
.String.</text></g><path d="M210 61h10">
</path></g><path d="M220 61a10 10 0 0 0 10 -10v-10a10 10 0 0 1 10 -10">
</path></g><path d="M 240 31 h 20 m -10 -10 v 20 m 10 -20 v 20">
</path></g></svg>