<svg class="railroad-diagram" height="282" viewBox="0 0 705 282" width="705">
<g transform="translate(.5 .5)">
<path d="M 20 31 v 20 m 10 -20 v 20 m -10 -10 h 20.5">
</path><g>
<path d="M40 41h0">
</path><path d="M664 41h0">
</path><g>
<path d="M40 41h0">
</path><path d="M408 41h0">
</path><path d="M40 41h20">
</path><g class="non-terminal">
<path d="M60 41h110">
</path><path d="M278 41h110">
</path><rect height="22" width="108" x="170" y="30">
</rect><text x="224" y="45">
namePattern</text></g><path d="M388 41h20">
</path><path d="M40 41a10 10 0 0 1 10 10v10a10 10 0 0 0 10 10">
</path><g class="non-terminal">
<path d="M60 71h106">
</path><path d="M282 71h106">
</path><rect height="22" width="116" x="166" y="60">
</rect><text x="224" y="75">
quasiLiteral</text></g><path d="M388 71a10 10 0 0 0 10 -10v-10a10 10 0 0 1 10 -10">
</path><path d="M40 41a10 10 0 0 1 10 10v40a10 10 0 0 0 10 10">
</path><g>
<path d="M60 101h90">
</path><path d="M298 101h90">
</path><g>
<path d="M150 101h0">
</path><path d="M226 101h0">
</path><path d="M150 101h20">
</path><g class="terminal">
<path d="M170 101h0">
</path><path d="M206 101h0">
</path><rect height="22" rx="10" ry="10" width="36" x="170" y="90">
</rect><text x="188" y="105">
==</text></g><path d="M206 101h20">
</path><path d="M150 101a10 10 0 0 1 10 10v10a10 10 0 0 0 10 10">
</path><g class="terminal">
<path d="M170 131h0">
</path><path d="M206 131h0">
</path><rect height="22" rx="10" ry="10" width="36" x="170" y="120">
</rect><text x="188" y="135">
!=</text></g><path d="M206 131a10 10 0 0 0 10 -10v-10a10 10 0 0 1 10 -10">
</path></g><path d="M226 101h10">
</path><g class="non-terminal">
<path d="M236 101h0">
</path><path d="M288 101h0">
</path><rect height="22" width="52" x="236" y="90">
</rect><text x="262" y="105">
prim</text></g><path d="M288 101h10">
</path></g><path d="M388 101a10 10 0 0 0 10 -10v-40a10 10 0 0 1 10 -10">
</path><path d="M40 41a10 10 0 0 1 10 10v100a10 10 0 0 0 10 10">
</path><g>
<path d="M60 161h76">
</path><path d="M312 161h76">
</path><path d="M136 161h10">
</path><g class="terminal">
<path d="M146 161h0">
</path><path d="M174 161h0">
</path><rect height="22" rx="10" ry="10" width="28" x="146" y="150">
</rect><text x="160" y="165">
_</text></g><path d="M174 161h10">
</path><path d="M184 161h10">
</path><g class="terminal">
<path d="M194 161h0">
</path><path d="M222 161h0">
</path><rect height="22" rx="10" ry="10" width="28" x="194" y="150">
</rect><text x="208" y="165">
:</text></g><path d="M222 161h10">
</path><path d="M232 161h10">
</path><g class="non-terminal">
<path d="M242 161h0">
</path><path d="M302 161h0">
</path><rect height="22" width="60" x="242" y="150">
</rect><text x="272" y="165">
guard</text></g><path d="M302 161h10">
</path></g><path d="M388 161a10 10 0 0 0 10 -10v-100a10 10 0 0 1 10 -10">
</path><path d="M40 41a10 10 0 0 1 10 10v130a10 10 0 0 0 10 10">
</path><g>
<path d="M60 191h0">
</path><path d="M388 191h0">
</path><path d="M60 191h10">
</path><g class="terminal">
<path d="M70 191h0">
</path><path d="M114 191h0">
</path><rect height="22" rx="10" ry="10" width="44" x="70" y="180">
</rect><text x="92" y="195">
via</text></g><path d="M114 191h10">
</path><path d="M124 191h10">
</path><g class="terminal">
<path d="M134 191h0">
</path><path d="M162 191h0">
</path><rect height="22" rx="10" ry="10" width="28" x="134" y="180">
</rect><text x="148" y="195">
(</text></g><path d="M162 191h10">
</path><path d="M172 191h10">
</path><g class="non-terminal">
<path d="M182 191h0">
</path><path d="M234 191h0">
</path><rect height="22" width="52" x="182" y="180">
</rect><text x="208" y="195">
expr</text></g><path d="M234 191h10">
</path><path d="M244 191h10">
</path><g class="terminal">
<path d="M254 191h0">
</path><path d="M282 191h0">
</path><rect height="22" rx="10" ry="10" width="28" x="254" y="180">
</rect><text x="268" y="195">
)</text></g><path d="M282 191h10">
</path><path d="M292 191h10">
</path><g class="non-terminal">
<path d="M302 191h0">
</path><path d="M378 191h0">
</path><rect height="22" width="76" x="302" y="180">
</rect><text x="340" y="195">
pattern</text></g><path d="M378 191h10">
</path></g><path d="M388 191a10 10 0 0 0 10 -10v-130a10 10 0 0 1 10 -10">
</path><path d="M40 41a10 10 0 0 1 10 10v160a10 10 0 0 0 10 10">
</path><g>
<path d="M60 221h30">
</path><path d="M358 221h30">
</path><path d="M90 221h10">
</path><g class="terminal">
<path d="M100 221h0">
</path><path d="M128 221h0">
</path><rect height="22" rx="10" ry="10" width="28" x="100" y="210">
</rect><text x="114" y="225">
[</text></g><path d="M128 221h10">
</path><path d="M138 221h10">
</path><g>
<path d="M148 221h0">
</path><path d="M300 221h0">
</path><path d="M148 221h10">
</path><g class="non-terminal">
<path d="M158 221h0">
</path><path d="M290 221h0">
</path><rect height="22" width="132" x="158" y="210">
</rect><text x="224" y="225">
mapPatternItem</text></g><path d="M290 221h10">
</path><path d="M158 221a10 10 0 0 0 -10 10v10a10 10 0 0 0 10 10">
</path><g class="terminal">
<path d="M158 251h52">
</path><path d="M238 251h52">
</path><rect height="22" rx="10" ry="10" width="28" x="210" y="240">
</rect><text x="224" y="255">
,</text></g><path d="M290 251a10 10 0 0 0 10 -10v-10a10 10 0 0 0 -10 -10">
</path></g><path d="M300 221h10">
</path><path d="M310 221h10">
</path><g class="terminal">
<path d="M320 221h0">
</path><path d="M348 221h0">
</path><rect height="22" rx="10" ry="10" width="28" x="320" y="210">
</rect><text x="334" y="225">
]</text></g><path d="M348 221h10">
</path></g><path d="M388 221a10 10 0 0 0 10 -10v-160a10 10 0 0 1 10 -10">
</path></g><g>
<path d="M408 41h0">
</path><path d="M664 41h0">
</path><path d="M408 41a10 10 0 0 0 10 -10v0a10 10 0 0 1 10 -10">
</path><g>
<path d="M428 21h216">
</path></g><path d="M644 21a10 10 0 0 1 10 10v0a10 10 0 0 0 10 10">
</path><path d="M408 41h20">
</path><g>
<path d="M428 41h0">
</path><path d="M644 41h0">
</path><path d="M428 41h10">
</path><g class="terminal">
<path d="M438 41h0">
</path><path d="M466 41h0">
</path><rect height="22" rx="10" ry="10" width="28" x="438" y="30">
</rect><text x="452" y="45">
?</text></g><path d="M466 41h10">
</path><path d="M476 41h10">
</path><g class="terminal">
<path d="M486 41h0">
</path><path d="M514 41h0">
</path><rect height="22" rx="10" ry="10" width="28" x="486" y="30">
</rect><text x="500" y="45">
(</text></g><path d="M514 41h10">
</path><path d="M524 41h10">
</path><g class="non-terminal">
<path d="M534 41h0">
</path><path d="M586 41h0">
</path><rect height="22" width="52" x="534" y="30">
</rect><text x="560" y="45">
expr</text></g><path d="M586 41h10">
</path><path d="M596 41h10">
</path><g class="terminal">
<path d="M606 41h0">
</path><path d="M634 41h0">
</path><rect height="22" rx="10" ry="10" width="28" x="606" y="30">
</rect><text x="620" y="45">
)</text></g><path d="M634 41h10">
</path></g><path d="M644 41h20">
</path></g></g><path d="M 664 41 h 20 m -10 -10 v 20 m 10 -20 v 20">
</path></g></svg>