<svg class="railroad-diagram" height="200" viewBox="0 0 593 200" width="593">
<g transform="translate(.5 .5)">
<path d="M 20 31 v 20 m 10 -20 v 20 m -10 -10 h 20.5">
</path><g>
<path d="M40 41h0">
</path><path d="M552 41h0">
</path><g>
<path d="M40 41h0">
</path><path d="M180 41h0">
</path><path d="M40 41a10 10 0 0 0 10 -10v0a10 10 0 0 1 10 -10">
</path><g>
<path d="M60 21h100">
</path></g><path d="M160 21a10 10 0 0 1 10 10v0a10 10 0 0 0 10 10">
</path><path d="M40 41h20">
</path><g class="terminal">
<path d="M60 41h0">
</path><path d="M160 41h0">
</path><rect height="22" rx="10" ry="10" width="100" x="60" y="30">
</rect><text x="110" y="45">
IDENTIFIER</text></g><path d="M160 41h20">
</path></g><path d="M180 41h10">
</path><g class="terminal">
<path d="M190 41h0">
</path><path d="M218 41h0">
</path><rect height="22" rx="10" ry="10" width="28" x="190" y="30">
</rect><text x="204" y="45">
`</text></g><path d="M218 41h10">
</path><g>
<path d="M228 41h0">
</path><path d="M504 41h0">
</path><path d="M228 41a10 10 0 0 0 10 -10v0a10 10 0 0 1 10 -10">
</path><g>
<path d="M248 21h236">
</path></g><path d="M484 21a10 10 0 0 1 10 10v0a10 10 0 0 0 10 10">
</path><path d="M228 41h20">
</path><g>
<path d="M248 41h0">
</path><path d="M484 41h0">
</path><path d="M248 41h10">
</path><g>
<path d="M258 41h0">
</path><path d="M474 41h0">
</path><path d="M258 41h20">
</path><g class="terminal">
<path d="M278 41h66">
</path><path d="M388 41h66">
</path><rect height="22" rx="10" ry="10" width="44" x="344" y="30">
</rect><text x="366" y="45">
...</text></g><path d="M454 41h20">
</path><path d="M258 41a10 10 0 0 1 10 10v10a10 10 0 0 0 10 10">
</path><g class="terminal">
<path d="M278 71h54">
</path><path d="M400 71h54">
</path><rect height="22" rx="10" ry="10" width="68" x="332" y="60">
</rect><text x="366" y="75">
$IDENT</text></g><path d="M454 71a10 10 0 0 0 10 -10v-10a10 10 0 0 1 10 -10">
</path><path d="M258 41a10 10 0 0 1 10 10v40a10 10 0 0 0 10 10">
</path><g>
<path d="M278 101h0">
</path><path d="M454 101h0">
</path><path d="M278 101h10">
</path><g class="terminal">
<path d="M288 101h0">
</path><path d="M324 101h0">
</path><rect height="22" rx="10" ry="10" width="36" x="288" y="90">
</rect><text x="306" y="105">
${</text></g><path d="M324 101h10">
</path><path d="M334 101h10">
</path><g class="non-terminal">
<path d="M344 101h0">
</path><path d="M396 101h0">
</path><rect height="22" width="52" x="344" y="90">
</rect><text x="370" y="105">
expr</text></g><path d="M396 101h10">
</path><path d="M406 101h10">
</path><g class="terminal">
<path d="M416 101h0">
</path><path d="M444 101h0">
</path><rect height="22" rx="10" ry="10" width="28" x="416" y="90">
</rect><text x="430" y="105">
}</text></g><path d="M444 101h10">
</path></g><path d="M454 101a10 10 0 0 0 10 -10v-40a10 10 0 0 1 10 -10">
</path><path d="M258 41a10 10 0 0 1 10 10v70a10 10 0 0 0 10 10">
</path><g class="terminal">
<path d="M278 131h54">
</path><path d="M400 131h54">
</path><rect height="22" rx="10" ry="10" width="68" x="332" y="120">
</rect><text x="366" y="135">
@IDENT</text></g><path d="M454 131a10 10 0 0 0 10 -10v-70a10 10 0 0 1 10 -10">
</path><path d="M258 41a10 10 0 0 1 10 10v100a10 10 0 0 0 10 10">
</path><g>
<path d="M278 161h0">
</path><path d="M454 161h0">
</path><path d="M278 161h10">
</path><g class="terminal">
<path d="M288 161h0">
</path><path d="M324 161h0">
</path><rect height="22" rx="10" ry="10" width="36" x="288" y="150">
</rect><text x="306" y="165">
@{</text></g><path d="M324 161h10">
</path><path d="M334 161h10">
</path><g class="non-terminal">
<path d="M344 161h0">
</path><path d="M396 161h0">
</path><rect height="22" width="52" x="344" y="150">
</rect><text x="370" y="165">
expr</text></g><path d="M396 161h10">
</path><path d="M406 161h10">
</path><g class="terminal">
<path d="M416 161h0">
</path><path d="M444 161h0">
</path><rect height="22" rx="10" ry="10" width="28" x="416" y="150">
</rect><text x="430" y="165">
}</text></g><path d="M444 161h10">
</path></g><path d="M454 161a10 10 0 0 0 10 -10v-100a10 10 0 0 1 10 -10">
</path></g><path d="M474 41h10">
</path><path d="M258 41a10 10 0 0 0 -10 10v119a10 10 0 0 0 10 10">
</path><g>
<path d="M258 180h216">
</path></g><path d="M474 180a10 10 0 0 0 10 -10v-119a10 10 0 0 0 -10 -10">
</path></g><path d="M484 41h20">
</path></g><path d="M504 41h10">
</path><g class="terminal">
<path d="M514 41h0">
</path><path d="M542 41h0">
</path><rect height="22" rx="10" ry="10" width="28" x="514" y="30">
</rect><text x="528" y="45">
`</text></g><path d="M542 41h10">
</path></g><path d="M 552 41 h 20 m -10 -10 v 20 m 10 -20 v 20">
</path></g></svg>