<svg class="railroad-diagram" height="72" viewBox="0 0 705 72" width="705">
<g transform="translate(.5 .5)">
<path d="M 20 31 v 20 m 10 -20 v 20 m -10 -10 h 20.5">
</path><g>
<path d="M40 41h0">
</path><path d="M664 41h0">
</path><path d="M40 41h10">
</path><g class="terminal">
<path d="M50 41h0">
</path><path d="M110 41h0">
</path><rect height="22" rx="10" ry="10" width="60" x="50" y="30">
</rect><text x="80" y="45">
while</text></g><path d="M110 41h10">
</path><path d="M120 41h10">
</path><g class="terminal">
<path d="M130 41h0">
</path><path d="M158 41h0">
</path><rect height="22" rx="10" ry="10" width="28" x="130" y="30">
</rect><text x="144" y="45">
(</text></g><path d="M158 41h10">
</path><path d="M168 41h10">
</path><g class="non-terminal">
<path d="M178 41h0">
</path><path d="M230 41h0">
</path><rect height="22" width="52" x="178" y="30">
</rect><text x="204" y="45">
expr</text></g><path d="M230 41h10">
</path><path d="M240 41h10">
</path><g class="terminal">
<path d="M250 41h0">
</path><path d="M278 41h0">
</path><rect height="22" rx="10" ry="10" width="28" x="250" y="30">
</rect><text x="264" y="45">
)</text></g><path d="M278 41h10">
</path><path d="M288 41h10">
</path><g class="non-terminal">
<path d="M298 41h0">
</path><path d="M358 41h0">
</path><rect height="22" width="60" x="298" y="30">
</rect><text x="328" y="45">
block</text></g><path d="M358 41h10">
</path><g>
<path d="M368 41h0">
</path><path d="M664 41h0">
</path><path d="M368 41a10 10 0 0 0 10 -10v0a10 10 0 0 1 10 -10">
</path><g>
<path d="M388 21h256">
</path></g><path d="M644 21a10 10 0 0 1 10 10v0a10 10 0 0 0 10 10">
</path><path d="M368 41h20">
</path><g>
<path d="M388 41h0">
</path><path d="M644 41h0">
</path><path d="M388 41h10">
</path><g class="terminal">
<path d="M398 41h0">
</path><path d="M458 41h0">
</path><rect height="22" rx="10" ry="10" width="60" x="398" y="30">
</rect><text x="428" y="45">
catch</text></g><path d="M458 41h10">
</path><path d="M468 41h10">
</path><g class="non-terminal">
<path d="M478 41h0">
</path><path d="M554 41h0">
</path><rect height="22" width="76" x="478" y="30">
</rect><text x="516" y="45">
pattern</text></g><path d="M554 41h10">
</path><path d="M564 41h10">
</path><g class="non-terminal">
<path d="M574 41h0">
</path><path d="M634 41h0">
</path><rect height="22" width="60" x="574" y="30">
</rect><text x="604" y="45">
block</text></g><path d="M634 41h10">
</path></g><path d="M644 41h20">
</path></g></g><path d="M 664 41 h 20 m -10 -10 v 20 m 10 -20 v 20">
</path></g></svg>